<mxfile host="app.diagrams.net" modified="2023-11-03T00:50:09.589Z" agent="Mozilla/5.0 (Windows NT 10.0; Win64; x64) AppleWebKit/537.36 (KHTML, like Gecko) Chrome/118.0.0.0 Safari/537.36" etag="tUHXZgbbLrMSqIEnIWid" version="22.0.8" type="device">
  <diagram name="Page-1" id="_lCLyTcUe7_kuuxmjNck">
    <mxGraphModel dx="2730" dy="804" grid="1" gridSize="10" guides="1" tooltips="1" connect="1" arrows="1" fold="1" page="1" pageScale="1" pageWidth="850" pageHeight="1100" math="0" shadow="0">
      <root>
        <mxCell id="0" />
        <mxCell id="1" parent="0" />
        <mxCell id="mi7ohrlbgTPJLSs5IZqN-151" value="" style="group" parent="1" vertex="1" connectable="0">
          <mxGeometry x="1850" y="20" width="190" height="485" as="geometry" />
        </mxCell>
        <mxCell id="mi7ohrlbgTPJLSs5IZqN-137" value="&lt;div&gt;&amp;nbsp;printRecord(head):&lt;/div&gt;" style="shape=process;whiteSpace=wrap;html=1;backgroundOutline=1;" parent="mi7ohrlbgTPJLSs5IZqN-151" vertex="1">
          <mxGeometry width="190" height="60" as="geometry" />
        </mxCell>
        <mxCell id="mi7ohrlbgTPJLSs5IZqN-139" value="While pointer&#39;s next node is not null" style="shape=hexagon;perimeter=hexagonPerimeter2;whiteSpace=wrap;html=1;fixedSize=1;" parent="mi7ohrlbgTPJLSs5IZqN-151" vertex="1">
          <mxGeometry x="35" y="110" width="120" height="80" as="geometry" />
        </mxCell>
        <mxCell id="mi7ohrlbgTPJLSs5IZqN-149" value="" style="edgeStyle=orthogonalEdgeStyle;rounded=0;orthogonalLoop=1;jettySize=auto;html=1;" parent="mi7ohrlbgTPJLSs5IZqN-151" source="mi7ohrlbgTPJLSs5IZqN-137" target="mi7ohrlbgTPJLSs5IZqN-139" edge="1">
          <mxGeometry relative="1" as="geometry" />
        </mxCell>
        <mxCell id="mi7ohrlbgTPJLSs5IZqN-140" value="print data" style="rounded=1;whiteSpace=wrap;html=1;" parent="mi7ohrlbgTPJLSs5IZqN-151" vertex="1">
          <mxGeometry x="35" y="230" width="120" height="60" as="geometry" />
        </mxCell>
        <mxCell id="mi7ohrlbgTPJLSs5IZqN-145" value="" style="edgeStyle=orthogonalEdgeStyle;rounded=0;orthogonalLoop=1;jettySize=auto;html=1;" parent="mi7ohrlbgTPJLSs5IZqN-151" source="mi7ohrlbgTPJLSs5IZqN-139" target="mi7ohrlbgTPJLSs5IZqN-140" edge="1">
          <mxGeometry relative="1" as="geometry" />
        </mxCell>
        <mxCell id="mi7ohrlbgTPJLSs5IZqN-147" style="edgeStyle=orthogonalEdgeStyle;rounded=0;orthogonalLoop=1;jettySize=auto;html=1;entryX=0;entryY=0.5;entryDx=0;entryDy=0;" parent="mi7ohrlbgTPJLSs5IZqN-151" source="mi7ohrlbgTPJLSs5IZqN-141" target="mi7ohrlbgTPJLSs5IZqN-139" edge="1">
          <mxGeometry relative="1" as="geometry">
            <mxPoint x="30" y="120" as="targetPoint" />
            <Array as="points">
              <mxPoint x="10" y="370" />
              <mxPoint x="10" y="150" />
            </Array>
          </mxGeometry>
        </mxCell>
        <mxCell id="mi7ohrlbgTPJLSs5IZqN-148" value="False" style="edgeLabel;html=1;align=center;verticalAlign=middle;resizable=0;points=[];" parent="mi7ohrlbgTPJLSs5IZqN-147" vertex="1" connectable="0">
          <mxGeometry x="0.1155" relative="1" as="geometry">
            <mxPoint as="offset" />
          </mxGeometry>
        </mxCell>
        <mxCell id="mi7ohrlbgTPJLSs5IZqN-141" value="if pointer&#39;s next&lt;br&gt;&amp;nbsp;node is null" style="rhombus;whiteSpace=wrap;html=1;" parent="mi7ohrlbgTPJLSs5IZqN-151" vertex="1">
          <mxGeometry x="30" y="330" width="130" height="80" as="geometry" />
        </mxCell>
        <mxCell id="mi7ohrlbgTPJLSs5IZqN-144" value="" style="edgeStyle=orthogonalEdgeStyle;rounded=0;orthogonalLoop=1;jettySize=auto;html=1;" parent="mi7ohrlbgTPJLSs5IZqN-151" source="mi7ohrlbgTPJLSs5IZqN-140" target="mi7ohrlbgTPJLSs5IZqN-141" edge="1">
          <mxGeometry relative="1" as="geometry" />
        </mxCell>
        <mxCell id="mi7ohrlbgTPJLSs5IZqN-142" value="end" style="html=1;dashed=0;whiteSpace=wrap;shape=mxgraph.dfd.start" parent="mi7ohrlbgTPJLSs5IZqN-151" vertex="1">
          <mxGeometry x="55" y="455" width="80" height="30" as="geometry" />
        </mxCell>
        <mxCell id="mi7ohrlbgTPJLSs5IZqN-143" value="" style="edgeStyle=orthogonalEdgeStyle;rounded=0;orthogonalLoop=1;jettySize=auto;html=1;" parent="mi7ohrlbgTPJLSs5IZqN-151" source="mi7ohrlbgTPJLSs5IZqN-141" target="mi7ohrlbgTPJLSs5IZqN-142" edge="1">
          <mxGeometry relative="1" as="geometry" />
        </mxCell>
        <mxCell id="mi7ohrlbgTPJLSs5IZqN-146" value="True" style="edgeLabel;html=1;align=center;verticalAlign=middle;resizable=0;points=[];" parent="mi7ohrlbgTPJLSs5IZqN-143" vertex="1" connectable="0">
          <mxGeometry x="-0.2543" relative="1" as="geometry">
            <mxPoint as="offset" />
          </mxGeometry>
        </mxCell>
        <mxCell id="mi7ohrlbgTPJLSs5IZqN-152" value="" style="group" parent="1" vertex="1" connectable="0">
          <mxGeometry x="1540" y="20" width="190" height="216" as="geometry" />
        </mxCell>
        <mxCell id="mi7ohrlbgTPJLSs5IZqN-127" value="end" style="html=1;dashed=0;whiteSpace=wrap;shape=mxgraph.dfd.start" parent="mi7ohrlbgTPJLSs5IZqN-152" vertex="1">
          <mxGeometry x="55" y="186" width="80" height="30" as="geometry" />
        </mxCell>
        <mxCell id="0-PH-o09ThRLQz_w7qao-12" value="" style="group" vertex="1" connectable="0" parent="mi7ohrlbgTPJLSs5IZqN-152">
          <mxGeometry width="190" height="186.03999999999996" as="geometry" />
        </mxCell>
        <mxCell id="mi7ohrlbgTPJLSs5IZqN-116" value="roundToOneDecimal(num)" style="shape=process;whiteSpace=wrap;html=1;backgroundOutline=1;" parent="0-PH-o09ThRLQz_w7qao-12" vertex="1">
          <mxGeometry width="190" height="60" as="geometry" />
        </mxCell>
        <mxCell id="mi7ohrlbgTPJLSs5IZqN-119" value="&lt;div&gt;Return round(num, 1)&lt;/div&gt;" style="rounded=1;whiteSpace=wrap;html=1;" parent="0-PH-o09ThRLQz_w7qao-12" vertex="1">
          <mxGeometry x="35" y="90" width="120" height="60" as="geometry" />
        </mxCell>
        <mxCell id="mi7ohrlbgTPJLSs5IZqN-120" value="" style="edgeStyle=orthogonalEdgeStyle;rounded=0;orthogonalLoop=1;jettySize=auto;html=1;" parent="0-PH-o09ThRLQz_w7qao-12" source="mi7ohrlbgTPJLSs5IZqN-116" target="mi7ohrlbgTPJLSs5IZqN-119" edge="1">
          <mxGeometry relative="1" as="geometry" />
        </mxCell>
        <mxCell id="mi7ohrlbgTPJLSs5IZqN-129" style="edgeStyle=orthogonalEdgeStyle;rounded=0;orthogonalLoop=1;jettySize=auto;html=1;entryX=0.411;entryY=-0.132;entryDx=0;entryDy=0;entryPerimeter=0;" parent="0-PH-o09ThRLQz_w7qao-12" edge="1">
          <mxGeometry relative="1" as="geometry">
            <mxPoint x="97" y="150" as="sourcePoint" />
            <mxPoint x="94.88000000000011" y="186.03999999999996" as="targetPoint" />
          </mxGeometry>
        </mxCell>
        <mxCell id="0-PH-o09ThRLQz_w7qao-13" value="" style="group" vertex="1" connectable="0" parent="1">
          <mxGeometry x="1290" y="20" width="190" height="220" as="geometry" />
        </mxCell>
        <mxCell id="mi7ohrlbgTPJLSs5IZqN-121" value="&lt;div&gt;combineHoursAndMinutes&lt;/div&gt;&lt;div&gt;(hours, minutes):&lt;/div&gt;" style="shape=process;whiteSpace=wrap;html=1;backgroundOutline=1;" parent="0-PH-o09ThRLQz_w7qao-13" vertex="1">
          <mxGeometry width="190" height="60" as="geometry" />
        </mxCell>
        <mxCell id="mi7ohrlbgTPJLSs5IZqN-122" value="Return hours + roundToOneDecimal(minutes / 60.0)" style="rounded=1;whiteSpace=wrap;html=1;" parent="0-PH-o09ThRLQz_w7qao-13" vertex="1">
          <mxGeometry y="95" width="190" height="60" as="geometry" />
        </mxCell>
        <mxCell id="mi7ohrlbgTPJLSs5IZqN-123" value="" style="edgeStyle=orthogonalEdgeStyle;rounded=0;orthogonalLoop=1;jettySize=auto;html=1;" parent="0-PH-o09ThRLQz_w7qao-13" source="mi7ohrlbgTPJLSs5IZqN-121" target="mi7ohrlbgTPJLSs5IZqN-122" edge="1">
          <mxGeometry relative="1" as="geometry" />
        </mxCell>
        <mxCell id="mi7ohrlbgTPJLSs5IZqN-125" value="end" style="html=1;dashed=0;whiteSpace=wrap;shape=mxgraph.dfd.start" parent="0-PH-o09ThRLQz_w7qao-13" vertex="1">
          <mxGeometry x="55" y="190" width="80" height="30" as="geometry" />
        </mxCell>
        <mxCell id="mi7ohrlbgTPJLSs5IZqN-126" style="edgeStyle=orthogonalEdgeStyle;rounded=0;orthogonalLoop=1;jettySize=auto;html=1;entryX=0.5;entryY=0.5;entryDx=0;entryDy=-15;entryPerimeter=0;" parent="0-PH-o09ThRLQz_w7qao-13" source="mi7ohrlbgTPJLSs5IZqN-122" target="mi7ohrlbgTPJLSs5IZqN-125" edge="1">
          <mxGeometry relative="1" as="geometry" />
        </mxCell>
        <mxCell id="0-PH-o09ThRLQz_w7qao-16" value="" style="group" vertex="1" connectable="0" parent="1">
          <mxGeometry x="2790" y="20" width="535" height="1860" as="geometry" />
        </mxCell>
        <mxCell id="mi7ohrlbgTPJLSs5IZqN-153" value="start" style="html=1;dashed=0;whiteSpace=wrap;shape=mxgraph.dfd.start" parent="0-PH-o09ThRLQz_w7qao-16" vertex="1">
          <mxGeometry x="95" width="80" height="30" as="geometry" />
        </mxCell>
        <mxCell id="mi7ohrlbgTPJLSs5IZqN-154" value="clear the screen" style="rounded=1;whiteSpace=wrap;html=1;" parent="0-PH-o09ThRLQz_w7qao-16" vertex="1">
          <mxGeometry x="75" y="75" width="120" height="60" as="geometry" />
        </mxCell>
        <mxCell id="mi7ohrlbgTPJLSs5IZqN-155" value="" style="edgeStyle=orthogonalEdgeStyle;rounded=0;orthogonalLoop=1;jettySize=auto;html=1;" parent="0-PH-o09ThRLQz_w7qao-16" source="mi7ohrlbgTPJLSs5IZqN-153" target="mi7ohrlbgTPJLSs5IZqN-154" edge="1">
          <mxGeometry relative="1" as="geometry" />
        </mxCell>
        <mxCell id="mi7ohrlbgTPJLSs5IZqN-157" value="while true" style="shape=hexagon;perimeter=hexagonPerimeter2;whiteSpace=wrap;html=1;fixedSize=1;" parent="0-PH-o09ThRLQz_w7qao-16" vertex="1">
          <mxGeometry x="75" y="330" width="120" height="80" as="geometry" />
        </mxCell>
        <mxCell id="mi7ohrlbgTPJLSs5IZqN-164" value="" style="edgeStyle=orthogonalEdgeStyle;rounded=0;orthogonalLoop=1;jettySize=auto;html=1;" parent="0-PH-o09ThRLQz_w7qao-16" source="mi7ohrlbgTPJLSs5IZqN-159" edge="1">
          <mxGeometry relative="1" as="geometry">
            <mxPoint x="135" y="580" as="targetPoint" />
          </mxGeometry>
        </mxCell>
        <mxCell id="mi7ohrlbgTPJLSs5IZqN-159" value="acceptHoursInput()" style="shape=process;whiteSpace=wrap;html=1;backgroundOutline=1;" parent="0-PH-o09ThRLQz_w7qao-16" vertex="1">
          <mxGeometry x="65" y="460" width="140" height="60" as="geometry" />
        </mxCell>
        <mxCell id="mi7ohrlbgTPJLSs5IZqN-162" value="" style="edgeStyle=orthogonalEdgeStyle;rounded=0;orthogonalLoop=1;jettySize=auto;html=1;" parent="0-PH-o09ThRLQz_w7qao-16" source="mi7ohrlbgTPJLSs5IZqN-157" target="mi7ohrlbgTPJLSs5IZqN-159" edge="1">
          <mxGeometry relative="1" as="geometry" />
        </mxCell>
        <mxCell id="mi7ohrlbgTPJLSs5IZqN-167" value="" style="edgeStyle=orthogonalEdgeStyle;rounded=0;orthogonalLoop=1;jettySize=auto;html=1;" parent="0-PH-o09ThRLQz_w7qao-16" source="mi7ohrlbgTPJLSs5IZqN-165" edge="1">
          <mxGeometry relative="1" as="geometry">
            <mxPoint x="135" y="720" as="targetPoint" />
          </mxGeometry>
        </mxCell>
        <mxCell id="mi7ohrlbgTPJLSs5IZqN-165" value="hour = return value" style="rounded=1;whiteSpace=wrap;html=1;" parent="0-PH-o09ThRLQz_w7qao-16" vertex="1">
          <mxGeometry x="75" y="580" width="120" height="60" as="geometry" />
        </mxCell>
        <mxCell id="mi7ohrlbgTPJLSs5IZqN-168" value="acceptMinutesInput()" style="shape=process;whiteSpace=wrap;html=1;backgroundOutline=1;" parent="0-PH-o09ThRLQz_w7qao-16" vertex="1">
          <mxGeometry x="55" y="720" width="150" height="60" as="geometry" />
        </mxCell>
        <mxCell id="mi7ohrlbgTPJLSs5IZqN-169" value="minute - return value" style="rounded=1;whiteSpace=wrap;html=1;" parent="0-PH-o09ThRLQz_w7qao-16" vertex="1">
          <mxGeometry x="75" y="840" width="120" height="60" as="geometry" />
        </mxCell>
        <mxCell id="mi7ohrlbgTPJLSs5IZqN-170" value="" style="edgeStyle=orthogonalEdgeStyle;rounded=0;orthogonalLoop=1;jettySize=auto;html=1;" parent="0-PH-o09ThRLQz_w7qao-16" source="mi7ohrlbgTPJLSs5IZqN-168" target="mi7ohrlbgTPJLSs5IZqN-169" edge="1">
          <mxGeometry relative="1" as="geometry">
            <Array as="points">
              <mxPoint x="135" y="790" />
              <mxPoint x="135" y="790" />
            </Array>
          </mxGeometry>
        </mxCell>
        <mxCell id="mi7ohrlbgTPJLSs5IZqN-171" value="&amp;nbsp;createParkingRecord&lt;br&gt;(hours, minutes)" style="shape=process;whiteSpace=wrap;html=1;backgroundOutline=1;" parent="0-PH-o09ThRLQz_w7qao-16" vertex="1">
          <mxGeometry x="45" y="950" width="180" height="60" as="geometry" />
        </mxCell>
        <mxCell id="mi7ohrlbgTPJLSs5IZqN-172" value="" style="edgeStyle=orthogonalEdgeStyle;rounded=0;orthogonalLoop=1;jettySize=auto;html=1;" parent="0-PH-o09ThRLQz_w7qao-16" source="mi7ohrlbgTPJLSs5IZqN-169" target="mi7ohrlbgTPJLSs5IZqN-171" edge="1">
          <mxGeometry relative="1" as="geometry" />
        </mxCell>
        <mxCell id="mi7ohrlbgTPJLSs5IZqN-173" value="record = return value" style="rounded=1;whiteSpace=wrap;html=1;" parent="0-PH-o09ThRLQz_w7qao-16" vertex="1">
          <mxGeometry x="75" y="1060" width="120" height="60" as="geometry" />
        </mxCell>
        <mxCell id="mi7ohrlbgTPJLSs5IZqN-174" value="" style="edgeStyle=orthogonalEdgeStyle;rounded=0;orthogonalLoop=1;jettySize=auto;html=1;" parent="0-PH-o09ThRLQz_w7qao-16" source="mi7ohrlbgTPJLSs5IZqN-171" target="mi7ohrlbgTPJLSs5IZqN-173" edge="1">
          <mxGeometry relative="1" as="geometry" />
        </mxCell>
        <mxCell id="mi7ohrlbgTPJLSs5IZqN-175" value="insertnode(record)&amp;nbsp;" style="shape=process;whiteSpace=wrap;html=1;backgroundOutline=1;" parent="0-PH-o09ThRLQz_w7qao-16" vertex="1">
          <mxGeometry x="60" y="1160" width="150" height="50" as="geometry" />
        </mxCell>
        <mxCell id="6K-ohInJwZoL7DNTvh3c-8" value="" style="edgeStyle=orthogonalEdgeStyle;rounded=0;orthogonalLoop=1;jettySize=auto;html=1;" parent="0-PH-o09ThRLQz_w7qao-16" source="mi7ohrlbgTPJLSs5IZqN-173" target="mi7ohrlbgTPJLSs5IZqN-175" edge="1">
          <mxGeometry relative="1" as="geometry" />
        </mxCell>
        <mxCell id="mi7ohrlbgTPJLSs5IZqN-179" value="if user ask to view record" style="rhombus;whiteSpace=wrap;html=1;" parent="0-PH-o09ThRLQz_w7qao-16" vertex="1">
          <mxGeometry x="50" y="1270" width="170" height="80" as="geometry" />
        </mxCell>
        <mxCell id="6K-ohInJwZoL7DNTvh3c-5" value="" style="edgeStyle=orthogonalEdgeStyle;rounded=0;orthogonalLoop=1;jettySize=auto;html=1;" parent="0-PH-o09ThRLQz_w7qao-16" source="mi7ohrlbgTPJLSs5IZqN-175" target="mi7ohrlbgTPJLSs5IZqN-179" edge="1">
          <mxGeometry relative="1" as="geometry" />
        </mxCell>
        <mxCell id="mi7ohrlbgTPJLSs5IZqN-180" value="printrecord funciton" style="shape=process;whiteSpace=wrap;html=1;backgroundOutline=1;" parent="0-PH-o09ThRLQz_w7qao-16" vertex="1">
          <mxGeometry x="275" y="1280" width="120" height="60" as="geometry" />
        </mxCell>
        <mxCell id="6K-ohInJwZoL7DNTvh3c-10" value="" style="edgeStyle=orthogonalEdgeStyle;rounded=0;orthogonalLoop=1;jettySize=auto;html=1;" parent="0-PH-o09ThRLQz_w7qao-16" source="mi7ohrlbgTPJLSs5IZqN-179" target="mi7ohrlbgTPJLSs5IZqN-180" edge="1">
          <mxGeometry relative="1" as="geometry" />
        </mxCell>
        <mxCell id="6K-ohInJwZoL7DNTvh3c-14" value="True" style="edgeLabel;html=1;align=center;verticalAlign=middle;resizable=0;points=[];" parent="6K-ohInJwZoL7DNTvh3c-10" vertex="1" connectable="0">
          <mxGeometry x="-0.2364" relative="1" as="geometry">
            <mxPoint as="offset" />
          </mxGeometry>
        </mxCell>
        <mxCell id="mi7ohrlbgTPJLSs5IZqN-181" value="End" style="html=1;dashed=0;whiteSpace=wrap;shape=mxgraph.dfd.start" parent="0-PH-o09ThRLQz_w7qao-16" vertex="1">
          <mxGeometry x="95" y="1830" width="80" height="30" as="geometry" />
        </mxCell>
        <mxCell id="mi7ohrlbgTPJLSs5IZqN-184" value="if user want to continue" style="rhombus;whiteSpace=wrap;html=1;" parent="0-PH-o09ThRLQz_w7qao-16" vertex="1">
          <mxGeometry x="50" y="1400" width="170" height="80" as="geometry" />
        </mxCell>
        <mxCell id="6K-ohInJwZoL7DNTvh3c-4" value="" style="edgeStyle=orthogonalEdgeStyle;rounded=0;orthogonalLoop=1;jettySize=auto;html=1;" parent="0-PH-o09ThRLQz_w7qao-16" source="mi7ohrlbgTPJLSs5IZqN-179" target="mi7ohrlbgTPJLSs5IZqN-184" edge="1">
          <mxGeometry relative="1" as="geometry" />
        </mxCell>
        <mxCell id="6K-ohInJwZoL7DNTvh3c-15" value="False" style="edgeLabel;html=1;align=center;verticalAlign=middle;resizable=0;points=[];" parent="6K-ohInJwZoL7DNTvh3c-4" vertex="1" connectable="0">
          <mxGeometry x="-0.1867" y="1" relative="1" as="geometry">
            <mxPoint as="offset" />
          </mxGeometry>
        </mxCell>
        <mxCell id="mi7ohrlbgTPJLSs5IZqN-193" style="edgeStyle=orthogonalEdgeStyle;rounded=0;orthogonalLoop=1;jettySize=auto;html=1;entryX=1;entryY=0.5;entryDx=0;entryDy=0;" parent="0-PH-o09ThRLQz_w7qao-16" source="mi7ohrlbgTPJLSs5IZqN-180" target="mi7ohrlbgTPJLSs5IZqN-184" edge="1">
          <mxGeometry relative="1" as="geometry">
            <Array as="points">
              <mxPoint x="410" y="1310" />
              <mxPoint x="410" y="1440" />
            </Array>
          </mxGeometry>
        </mxCell>
        <mxCell id="mi7ohrlbgTPJLSs5IZqN-186" style="edgeStyle=orthogonalEdgeStyle;rounded=0;orthogonalLoop=1;jettySize=auto;html=1;entryX=0;entryY=0.5;entryDx=0;entryDy=0;entryPerimeter=0;" parent="0-PH-o09ThRLQz_w7qao-16" source="mi7ohrlbgTPJLSs5IZqN-184" target="mi7ohrlbgTPJLSs5IZqN-181" edge="1">
          <mxGeometry relative="1" as="geometry">
            <Array as="points">
              <mxPoint y="1440" />
            </Array>
          </mxGeometry>
        </mxCell>
        <mxCell id="6K-ohInJwZoL7DNTvh3c-20" value="False" style="edgeLabel;html=1;align=center;verticalAlign=middle;resizable=0;points=[];" parent="mi7ohrlbgTPJLSs5IZqN-186" vertex="1" connectable="0">
          <mxGeometry x="-0.1382" relative="1" as="geometry">
            <mxPoint as="offset" />
          </mxGeometry>
        </mxCell>
        <mxCell id="mi7ohrlbgTPJLSs5IZqN-192" style="edgeStyle=orthogonalEdgeStyle;rounded=0;orthogonalLoop=1;jettySize=auto;html=1;entryX=1;entryY=0.5;entryDx=0;entryDy=0;" parent="0-PH-o09ThRLQz_w7qao-16" source="mi7ohrlbgTPJLSs5IZqN-187" target="mi7ohrlbgTPJLSs5IZqN-159" edge="1">
          <mxGeometry relative="1" as="geometry">
            <Array as="points">
              <mxPoint x="535" y="1590" />
              <mxPoint x="535" y="490" />
            </Array>
          </mxGeometry>
        </mxCell>
        <mxCell id="6K-ohInJwZoL7DNTvh3c-18" value="True" style="edgeLabel;html=1;align=center;verticalAlign=middle;resizable=0;points=[];" parent="mi7ohrlbgTPJLSs5IZqN-192" vertex="1" connectable="0">
          <mxGeometry x="-0.8777" y="-1" relative="1" as="geometry">
            <mxPoint as="offset" />
          </mxGeometry>
        </mxCell>
        <mxCell id="mi7ohrlbgTPJLSs5IZqN-187" value="If use want to add data" style="rhombus;whiteSpace=wrap;html=1;" parent="0-PH-o09ThRLQz_w7qao-16" vertex="1">
          <mxGeometry x="55" y="1540" width="160" height="100" as="geometry" />
        </mxCell>
        <mxCell id="6K-ohInJwZoL7DNTvh3c-9" value="" style="edgeStyle=orthogonalEdgeStyle;rounded=0;orthogonalLoop=1;jettySize=auto;html=1;" parent="0-PH-o09ThRLQz_w7qao-16" source="mi7ohrlbgTPJLSs5IZqN-184" target="mi7ohrlbgTPJLSs5IZqN-187" edge="1">
          <mxGeometry relative="1" as="geometry" />
        </mxCell>
        <mxCell id="6K-ohInJwZoL7DNTvh3c-16" value="True" style="edgeLabel;html=1;align=center;verticalAlign=middle;resizable=0;points=[];" parent="6K-ohInJwZoL7DNTvh3c-9" vertex="1" connectable="0">
          <mxGeometry x="-0.1556" y="-2" relative="1" as="geometry">
            <mxPoint as="offset" />
          </mxGeometry>
        </mxCell>
        <mxCell id="6K-ohInJwZoL7DNTvh3c-2" value="" style="edgeStyle=orthogonalEdgeStyle;rounded=0;orthogonalLoop=1;jettySize=auto;html=1;" parent="0-PH-o09ThRLQz_w7qao-16" source="mi7ohrlbgTPJLSs5IZqN-194" target="mi7ohrlbgTPJLSs5IZqN-181" edge="1">
          <mxGeometry relative="1" as="geometry">
            <Array as="points">
              <mxPoint x="110" y="1830" />
              <mxPoint x="105" y="1830" />
            </Array>
          </mxGeometry>
        </mxCell>
        <mxCell id="mi7ohrlbgTPJLSs5IZqN-194" value="printrecord funciton" style="shape=process;whiteSpace=wrap;html=1;backgroundOutline=1;" parent="0-PH-o09ThRLQz_w7qao-16" vertex="1">
          <mxGeometry x="75" y="1710" width="120" height="60" as="geometry" />
        </mxCell>
        <mxCell id="6K-ohInJwZoL7DNTvh3c-1" value="" style="edgeStyle=orthogonalEdgeStyle;rounded=0;orthogonalLoop=1;jettySize=auto;html=1;" parent="0-PH-o09ThRLQz_w7qao-16" source="mi7ohrlbgTPJLSs5IZqN-187" target="mi7ohrlbgTPJLSs5IZqN-194" edge="1">
          <mxGeometry relative="1" as="geometry" />
        </mxCell>
        <mxCell id="6K-ohInJwZoL7DNTvh3c-19" value="False" style="edgeLabel;html=1;align=center;verticalAlign=middle;resizable=0;points=[];" parent="6K-ohInJwZoL7DNTvh3c-1" vertex="1" connectable="0">
          <mxGeometry x="-0.2571" y="2" relative="1" as="geometry">
            <mxPoint as="offset" />
          </mxGeometry>
        </mxCell>
        <mxCell id="6K-ohInJwZoL7DNTvh3c-13" value="" style="edgeStyle=orthogonalEdgeStyle;rounded=0;orthogonalLoop=1;jettySize=auto;html=1;" parent="0-PH-o09ThRLQz_w7qao-16" source="mi7ohrlbgTPJLSs5IZqN-196" target="mi7ohrlbgTPJLSs5IZqN-157" edge="1">
          <mxGeometry relative="1" as="geometry" />
        </mxCell>
        <mxCell id="mi7ohrlbgTPJLSs5IZqN-196" value="initialize linked list record()" style="rounded=1;whiteSpace=wrap;html=1;" parent="0-PH-o09ThRLQz_w7qao-16" vertex="1">
          <mxGeometry x="75" y="200" width="120" height="60" as="geometry" />
        </mxCell>
        <mxCell id="6K-ohInJwZoL7DNTvh3c-12" value="" style="edgeStyle=orthogonalEdgeStyle;rounded=0;orthogonalLoop=1;jettySize=auto;html=1;" parent="0-PH-o09ThRLQz_w7qao-16" source="mi7ohrlbgTPJLSs5IZqN-154" target="mi7ohrlbgTPJLSs5IZqN-196" edge="1">
          <mxGeometry relative="1" as="geometry" />
        </mxCell>
        <mxCell id="0-PH-o09ThRLQz_w7qao-17" value="" style="group" vertex="1" connectable="0" parent="1">
          <mxGeometry x="795" y="20" width="480" height="595" as="geometry" />
        </mxCell>
        <mxCell id="mi7ohrlbgTPJLSs5IZqN-91" value="calculate charges&lt;br&gt;(hour, minutes)" style="shape=process;whiteSpace=wrap;html=1;backgroundOutline=1;" parent="0-PH-o09ThRLQz_w7qao-17" vertex="1">
          <mxGeometry x="35" width="120" height="60" as="geometry" />
        </mxCell>
        <mxCell id="mi7ohrlbgTPJLSs5IZqN-96" value="combineHoursAndMinutes&lt;br&gt;(hours, minutes)" style="shape=process;whiteSpace=wrap;html=1;backgroundOutline=1;" parent="0-PH-o09ThRLQz_w7qao-17" vertex="1">
          <mxGeometry y="110" width="190" height="60" as="geometry" />
        </mxCell>
        <mxCell id="mi7ohrlbgTPJLSs5IZqN-102" value="" style="edgeStyle=orthogonalEdgeStyle;rounded=0;orthogonalLoop=1;jettySize=auto;html=1;" parent="0-PH-o09ThRLQz_w7qao-17" source="mi7ohrlbgTPJLSs5IZqN-91" target="mi7ohrlbgTPJLSs5IZqN-96" edge="1">
          <mxGeometry relative="1" as="geometry" />
        </mxCell>
        <mxCell id="mi7ohrlbgTPJLSs5IZqN-99" value="if hourMinutes &amp;lt;= 3.0" style="rhombus;whiteSpace=wrap;html=1;" parent="0-PH-o09ThRLQz_w7qao-17" vertex="1">
          <mxGeometry x="25" y="210" width="140" height="80" as="geometry" />
        </mxCell>
        <mxCell id="mi7ohrlbgTPJLSs5IZqN-101" value="" style="edgeStyle=orthogonalEdgeStyle;rounded=0;orthogonalLoop=1;jettySize=auto;html=1;" parent="0-PH-o09ThRLQz_w7qao-17" source="mi7ohrlbgTPJLSs5IZqN-96" target="mi7ohrlbgTPJLSs5IZqN-99" edge="1">
          <mxGeometry relative="1" as="geometry" />
        </mxCell>
        <mxCell id="mi7ohrlbgTPJLSs5IZqN-103" value="return fixed charge of&amp;nbsp; 4.00" style="rounded=1;whiteSpace=wrap;html=1;" parent="0-PH-o09ThRLQz_w7qao-17" vertex="1">
          <mxGeometry x="230" y="220" width="120" height="60" as="geometry" />
        </mxCell>
        <mxCell id="mi7ohrlbgTPJLSs5IZqN-104" value="" style="edgeStyle=orthogonalEdgeStyle;rounded=0;orthogonalLoop=1;jettySize=auto;html=1;" parent="0-PH-o09ThRLQz_w7qao-17" source="mi7ohrlbgTPJLSs5IZqN-99" target="mi7ohrlbgTPJLSs5IZqN-103" edge="1">
          <mxGeometry relative="1" as="geometry" />
        </mxCell>
        <mxCell id="mi7ohrlbgTPJLSs5IZqN-110" value="True" style="edgeLabel;html=1;align=center;verticalAlign=middle;resizable=0;points=[];" parent="mi7ohrlbgTPJLSs5IZqN-104" vertex="1" connectable="0">
          <mxGeometry x="-0.2967" relative="1" as="geometry">
            <mxPoint as="offset" />
          </mxGeometry>
        </mxCell>
        <mxCell id="mi7ohrlbgTPJLSs5IZqN-113" value="" style="edgeStyle=orthogonalEdgeStyle;rounded=0;orthogonalLoop=1;jettySize=auto;html=1;" parent="0-PH-o09ThRLQz_w7qao-17" source="mi7ohrlbgTPJLSs5IZqN-105" edge="1">
          <mxGeometry relative="1" as="geometry">
            <mxPoint x="95" y="470" as="targetPoint" />
          </mxGeometry>
        </mxCell>
        <mxCell id="mi7ohrlbgTPJLSs5IZqN-114" value="False" style="edgeLabel;html=1;align=center;verticalAlign=middle;resizable=0;points=[];" parent="mi7ohrlbgTPJLSs5IZqN-113" vertex="1" connectable="0">
          <mxGeometry x="-0.1384" relative="1" as="geometry">
            <mxPoint as="offset" />
          </mxGeometry>
        </mxCell>
        <mxCell id="mi7ohrlbgTPJLSs5IZqN-105" value="if 3.0 &amp;lt; hourMinutes &amp;lt; 15.0" style="rhombus;whiteSpace=wrap;html=1;" parent="0-PH-o09ThRLQz_w7qao-17" vertex="1">
          <mxGeometry y="340" width="190" height="80" as="geometry" />
        </mxCell>
        <mxCell id="mi7ohrlbgTPJLSs5IZqN-106" value="" style="edgeStyle=orthogonalEdgeStyle;rounded=0;orthogonalLoop=1;jettySize=auto;html=1;" parent="0-PH-o09ThRLQz_w7qao-17" source="mi7ohrlbgTPJLSs5IZqN-99" target="mi7ohrlbgTPJLSs5IZqN-105" edge="1">
          <mxGeometry relative="1" as="geometry" />
        </mxCell>
        <mxCell id="mi7ohrlbgTPJLSs5IZqN-111" value="False" style="edgeLabel;html=1;align=center;verticalAlign=middle;resizable=0;points=[];" parent="mi7ohrlbgTPJLSs5IZqN-106" vertex="1" connectable="0">
          <mxGeometry x="-0.1194" relative="1" as="geometry">
            <mxPoint as="offset" />
          </mxGeometry>
        </mxCell>
        <mxCell id="mi7ohrlbgTPJLSs5IZqN-107" value="&lt;div&gt;Return ((hoursMinutes - 3) * 0.5) + 4.00.&lt;/div&gt;" style="rounded=1;whiteSpace=wrap;html=1;" parent="0-PH-o09ThRLQz_w7qao-17" vertex="1">
          <mxGeometry x="230" y="350" width="230" height="60" as="geometry" />
        </mxCell>
        <mxCell id="mi7ohrlbgTPJLSs5IZqN-108" value="" style="edgeStyle=orthogonalEdgeStyle;rounded=0;orthogonalLoop=1;jettySize=auto;html=1;" parent="0-PH-o09ThRLQz_w7qao-17" source="mi7ohrlbgTPJLSs5IZqN-105" target="mi7ohrlbgTPJLSs5IZqN-107" edge="1">
          <mxGeometry relative="1" as="geometry" />
        </mxCell>
        <mxCell id="mi7ohrlbgTPJLSs5IZqN-109" value="True" style="edgeLabel;html=1;align=center;verticalAlign=middle;resizable=0;points=[];" parent="mi7ohrlbgTPJLSs5IZqN-108" vertex="1" connectable="0">
          <mxGeometry x="-0.1548" y="1" relative="1" as="geometry">
            <mxPoint as="offset" />
          </mxGeometry>
        </mxCell>
        <mxCell id="mi7ohrlbgTPJLSs5IZqN-115" value="return fixed charge of 10.00" style="rounded=1;whiteSpace=wrap;html=1;" parent="0-PH-o09ThRLQz_w7qao-17" vertex="1">
          <mxGeometry x="35" y="470" width="120" height="60" as="geometry" />
        </mxCell>
        <mxCell id="mi7ohrlbgTPJLSs5IZqN-130" value="end" style="html=1;dashed=0;whiteSpace=wrap;shape=mxgraph.dfd.start" parent="0-PH-o09ThRLQz_w7qao-17" vertex="1">
          <mxGeometry x="55" y="565" width="80" height="30" as="geometry" />
        </mxCell>
        <mxCell id="mi7ohrlbgTPJLSs5IZqN-132" value="" style="edgeStyle=orthogonalEdgeStyle;rounded=0;orthogonalLoop=1;jettySize=auto;html=1;entryX=1;entryY=0.5;entryDx=0;entryDy=0;entryPerimeter=0;" parent="0-PH-o09ThRLQz_w7qao-17" source="mi7ohrlbgTPJLSs5IZqN-103" target="mi7ohrlbgTPJLSs5IZqN-130" edge="1">
          <mxGeometry relative="1" as="geometry">
            <Array as="points">
              <mxPoint x="480" y="250" />
              <mxPoint x="480" y="580" />
            </Array>
          </mxGeometry>
        </mxCell>
        <mxCell id="mi7ohrlbgTPJLSs5IZqN-136" value="" style="edgeStyle=orthogonalEdgeStyle;rounded=0;orthogonalLoop=1;jettySize=auto;html=1;entryX=0;entryY=0;entryDx=75.605;entryDy=4.395000000000001;entryPerimeter=0;" parent="0-PH-o09ThRLQz_w7qao-17" source="mi7ohrlbgTPJLSs5IZqN-107" target="mi7ohrlbgTPJLSs5IZqN-130" edge="1">
          <mxGeometry relative="1" as="geometry">
            <mxPoint x="345" y="490" as="targetPoint" />
            <Array as="points">
              <mxPoint x="345" y="580" />
              <mxPoint x="131" y="580" />
            </Array>
          </mxGeometry>
        </mxCell>
        <mxCell id="mi7ohrlbgTPJLSs5IZqN-131" style="edgeStyle=orthogonalEdgeStyle;rounded=0;orthogonalLoop=1;jettySize=auto;html=1;" parent="0-PH-o09ThRLQz_w7qao-17" source="mi7ohrlbgTPJLSs5IZqN-115" target="mi7ohrlbgTPJLSs5IZqN-130" edge="1">
          <mxGeometry relative="1" as="geometry" />
        </mxCell>
        <mxCell id="0-PH-o09ThRLQz_w7qao-18" value="" style="group" vertex="1" connectable="0" parent="1">
          <mxGeometry x="500" y="20" width="260" height="800" as="geometry" />
        </mxCell>
        <mxCell id="mi7ohrlbgTPJLSs5IZqN-60" value="" style="edgeStyle=orthogonalEdgeStyle;rounded=0;orthogonalLoop=1;jettySize=auto;html=1;" parent="0-PH-o09ThRLQz_w7qao-18" source="mi7ohrlbgTPJLSs5IZqN-58" edge="1">
          <mxGeometry relative="1" as="geometry">
            <mxPoint x="60" y="100" as="targetPoint" />
          </mxGeometry>
        </mxCell>
        <mxCell id="mi7ohrlbgTPJLSs5IZqN-58" value="check input&lt;br&gt;(input data)" style="shape=process;whiteSpace=wrap;html=1;backgroundOutline=1;" parent="0-PH-o09ThRLQz_w7qao-18" vertex="1">
          <mxGeometry width="120" height="60" as="geometry" />
        </mxCell>
        <mxCell id="mi7ohrlbgTPJLSs5IZqN-62" value="" style="edgeStyle=orthogonalEdgeStyle;rounded=0;orthogonalLoop=1;jettySize=auto;html=1;" parent="0-PH-o09ThRLQz_w7qao-18" edge="1">
          <mxGeometry relative="1" as="geometry">
            <mxPoint x="60.04761904761904" y="160" as="sourcePoint" />
            <mxPoint x="60" y="210" as="targetPoint" />
          </mxGeometry>
        </mxCell>
        <mxCell id="mi7ohrlbgTPJLSs5IZqN-64" value="check input is letter or not" style="shape=process;whiteSpace=wrap;html=1;backgroundOutline=1;" parent="0-PH-o09ThRLQz_w7qao-18" vertex="1">
          <mxGeometry y="210" width="120" height="60" as="geometry" />
        </mxCell>
        <mxCell id="mi7ohrlbgTPJLSs5IZqN-65" value="if input is letter" style="rhombus;whiteSpace=wrap;html=1;" parent="0-PH-o09ThRLQz_w7qao-18" vertex="1">
          <mxGeometry x="10" y="305" width="100" height="80" as="geometry" />
        </mxCell>
        <mxCell id="mi7ohrlbgTPJLSs5IZqN-66" value="" style="edgeStyle=orthogonalEdgeStyle;rounded=0;orthogonalLoop=1;jettySize=auto;html=1;" parent="0-PH-o09ThRLQz_w7qao-18" source="mi7ohrlbgTPJLSs5IZqN-64" target="mi7ohrlbgTPJLSs5IZqN-65" edge="1">
          <mxGeometry relative="1" as="geometry" />
        </mxCell>
        <mxCell id="mi7ohrlbgTPJLSs5IZqN-67" value="change letter input to lower case" style="rounded=0;whiteSpace=wrap;html=1;" parent="0-PH-o09ThRLQz_w7qao-18" vertex="1">
          <mxGeometry y="430" width="120" height="60" as="geometry" />
        </mxCell>
        <mxCell id="mi7ohrlbgTPJLSs5IZqN-68" value="" style="edgeStyle=orthogonalEdgeStyle;rounded=0;orthogonalLoop=1;jettySize=auto;html=1;" parent="0-PH-o09ThRLQz_w7qao-18" source="mi7ohrlbgTPJLSs5IZqN-65" target="mi7ohrlbgTPJLSs5IZqN-67" edge="1">
          <mxGeometry relative="1" as="geometry" />
        </mxCell>
        <mxCell id="mi7ohrlbgTPJLSs5IZqN-69" value="True" style="edgeLabel;html=1;align=center;verticalAlign=middle;resizable=0;points=[];" parent="mi7ohrlbgTPJLSs5IZqN-68" vertex="1" connectable="0">
          <mxGeometry x="-0.0321" relative="1" as="geometry">
            <mxPoint as="offset" />
          </mxGeometry>
        </mxCell>
        <mxCell id="mi7ohrlbgTPJLSs5IZqN-70" value="return true" style="rounded=1;whiteSpace=wrap;html=1;" parent="0-PH-o09ThRLQz_w7qao-18" vertex="1">
          <mxGeometry y="660" width="120" height="60" as="geometry" />
        </mxCell>
        <mxCell id="mi7ohrlbgTPJLSs5IZqN-72" value="end" style="html=1;dashed=0;whiteSpace=wrap;shape=mxgraph.dfd.start" parent="0-PH-o09ThRLQz_w7qao-18" vertex="1">
          <mxGeometry x="20" y="770" width="80" height="30" as="geometry" />
        </mxCell>
        <mxCell id="mi7ohrlbgTPJLSs5IZqN-73" value="" style="edgeStyle=orthogonalEdgeStyle;rounded=0;orthogonalLoop=1;jettySize=auto;html=1;" parent="0-PH-o09ThRLQz_w7qao-18" source="mi7ohrlbgTPJLSs5IZqN-70" target="mi7ohrlbgTPJLSs5IZqN-72" edge="1">
          <mxGeometry relative="1" as="geometry" />
        </mxCell>
        <mxCell id="mi7ohrlbgTPJLSs5IZqN-80" value="" style="edgeStyle=orthogonalEdgeStyle;rounded=0;orthogonalLoop=1;jettySize=auto;html=1;" parent="0-PH-o09ThRLQz_w7qao-18" source="mi7ohrlbgTPJLSs5IZqN-78" target="mi7ohrlbgTPJLSs5IZqN-70" edge="1">
          <mxGeometry relative="1" as="geometry" />
        </mxCell>
        <mxCell id="mi7ohrlbgTPJLSs5IZqN-78" value="check letter input valid option" style="rhombus;whiteSpace=wrap;html=1;" parent="0-PH-o09ThRLQz_w7qao-18" vertex="1">
          <mxGeometry y="530" width="120" height="80" as="geometry" />
        </mxCell>
        <mxCell id="mi7ohrlbgTPJLSs5IZqN-79" value="" style="edgeStyle=orthogonalEdgeStyle;rounded=0;orthogonalLoop=1;jettySize=auto;html=1;" parent="0-PH-o09ThRLQz_w7qao-18" source="mi7ohrlbgTPJLSs5IZqN-67" target="mi7ohrlbgTPJLSs5IZqN-78" edge="1">
          <mxGeometry relative="1" as="geometry" />
        </mxCell>
        <mxCell id="mi7ohrlbgTPJLSs5IZqN-83" style="edgeStyle=orthogonalEdgeStyle;rounded=0;orthogonalLoop=1;jettySize=auto;html=1;entryX=1;entryY=0.5;entryDx=0;entryDy=0;entryPerimeter=0;" parent="0-PH-o09ThRLQz_w7qao-18" source="mi7ohrlbgTPJLSs5IZqN-81" target="mi7ohrlbgTPJLSs5IZqN-72" edge="1">
          <mxGeometry relative="1" as="geometry">
            <mxPoint x="200" y="790" as="targetPoint" />
            <Array as="points">
              <mxPoint x="200" y="785" />
            </Array>
          </mxGeometry>
        </mxCell>
        <mxCell id="mi7ohrlbgTPJLSs5IZqN-81" value="return false" style="rounded=1;whiteSpace=wrap;html=1;" parent="0-PH-o09ThRLQz_w7qao-18" vertex="1">
          <mxGeometry x="140" y="660" width="120" height="60" as="geometry" />
        </mxCell>
        <mxCell id="mi7ohrlbgTPJLSs5IZqN-82" style="edgeStyle=orthogonalEdgeStyle;rounded=0;orthogonalLoop=1;jettySize=auto;html=1;entryX=0.5;entryY=0;entryDx=0;entryDy=0;" parent="0-PH-o09ThRLQz_w7qao-18" source="mi7ohrlbgTPJLSs5IZqN-65" target="mi7ohrlbgTPJLSs5IZqN-81" edge="1">
          <mxGeometry relative="1" as="geometry">
            <mxPoint x="200" y="345" as="targetPoint" />
          </mxGeometry>
        </mxCell>
        <mxCell id="mi7ohrlbgTPJLSs5IZqN-84" value="False" style="edgeLabel;html=1;align=center;verticalAlign=middle;resizable=0;points=[];" parent="mi7ohrlbgTPJLSs5IZqN-82" vertex="1" connectable="0">
          <mxGeometry x="0.1165" y="3" relative="1" as="geometry">
            <mxPoint as="offset" />
          </mxGeometry>
        </mxCell>
        <mxCell id="mi7ohrlbgTPJLSs5IZqN-88" value="accept input" style="shape=parallelogram;perimeter=parallelogramPerimeter;whiteSpace=wrap;html=1;fixedSize=1;" parent="0-PH-o09ThRLQz_w7qao-18" vertex="1">
          <mxGeometry y="100" width="120" height="60" as="geometry" />
        </mxCell>
        <mxCell id="0-PH-o09ThRLQz_w7qao-19" value="" style="group" vertex="1" connectable="0" parent="1">
          <mxGeometry x="110" y="20" width="200" height="1040" as="geometry" />
        </mxCell>
        <mxCell id="0-PH-o09ThRLQz_w7qao-3" value="" style="edgeStyle=orthogonalEdgeStyle;rounded=0;orthogonalLoop=1;jettySize=auto;html=1;" edge="1" parent="0-PH-o09ThRLQz_w7qao-19" source="0-PH-o09ThRLQz_w7qao-5">
          <mxGeometry relative="1" as="geometry">
            <mxPoint x="90.00000000000023" y="170" as="targetPoint" />
          </mxGeometry>
        </mxCell>
        <mxCell id="mi7ohrlbgTPJLSs5IZqN-25" value="accept input(flag)" style="shape=process;whiteSpace=wrap;html=1;backgroundOutline=1;" parent="0-PH-o09ThRLQz_w7qao-19" vertex="1">
          <mxGeometry x="30" width="120" height="60" as="geometry" />
        </mxCell>
        <mxCell id="mi7ohrlbgTPJLSs5IZqN-29" value="" style="edgeStyle=orthogonalEdgeStyle;rounded=0;orthogonalLoop=1;jettySize=auto;html=1;" parent="0-PH-o09ThRLQz_w7qao-19" edge="1">
          <mxGeometry relative="1" as="geometry">
            <mxPoint x="90.04761904761904" y="340" as="sourcePoint" />
            <mxPoint x="90" y="390" as="targetPoint" />
          </mxGeometry>
        </mxCell>
        <mxCell id="mi7ohrlbgTPJLSs5IZqN-31" value="" style="edgeStyle=orthogonalEdgeStyle;rounded=0;orthogonalLoop=1;jettySize=auto;html=1;" parent="0-PH-o09ThRLQz_w7qao-19" edge="1">
          <mxGeometry relative="1" as="geometry">
            <mxPoint x="90.04761904761904" y="450" as="sourcePoint" />
            <mxPoint x="90" y="480" as="targetPoint" />
          </mxGeometry>
        </mxCell>
        <mxCell id="mi7ohrlbgTPJLSs5IZqN-36" value="" style="edgeStyle=orthogonalEdgeStyle;rounded=0;orthogonalLoop=1;jettySize=auto;html=1;" parent="0-PH-o09ThRLQz_w7qao-19" edge="1">
          <mxGeometry relative="1" as="geometry">
            <mxPoint x="90" y="570" as="sourcePoint" />
            <mxPoint x="90.04761904761904" y="610" as="targetPoint" />
          </mxGeometry>
        </mxCell>
        <mxCell id="mi7ohrlbgTPJLSs5IZqN-41" value="True" style="edgeLabel;html=1;align=center;verticalAlign=middle;resizable=0;points=[];" parent="mi7ohrlbgTPJLSs5IZqN-36" vertex="1" connectable="0">
          <mxGeometry x="-0.25" y="2" relative="1" as="geometry">
            <mxPoint as="offset" />
          </mxGeometry>
        </mxCell>
        <mxCell id="mi7ohrlbgTPJLSs5IZqN-38" value="" style="edgeStyle=orthogonalEdgeStyle;rounded=0;orthogonalLoop=1;jettySize=auto;html=1;" parent="0-PH-o09ThRLQz_w7qao-19" edge="1">
          <mxGeometry relative="1" as="geometry">
            <mxPoint x="90.04761904761904" y="670" as="sourcePoint" />
            <mxPoint x="90" y="710" as="targetPoint" />
          </mxGeometry>
        </mxCell>
        <mxCell id="mi7ohrlbgTPJLSs5IZqN-40" value="" style="edgeStyle=orthogonalEdgeStyle;rounded=0;orthogonalLoop=1;jettySize=auto;html=1;" parent="0-PH-o09ThRLQz_w7qao-19" source="mi7ohrlbgTPJLSs5IZqN-45" edge="1">
          <mxGeometry relative="1" as="geometry">
            <mxPoint x="90" y="770" as="sourcePoint" />
            <mxPoint x="90" y="810" as="targetPoint" />
          </mxGeometry>
        </mxCell>
        <mxCell id="mi7ohrlbgTPJLSs5IZqN-42" value="If checked hour&lt;br&gt;&amp;nbsp;input is true" style="rhombus;whiteSpace=wrap;html=1;" parent="0-PH-o09ThRLQz_w7qao-19" vertex="1">
          <mxGeometry x="30" y="480" width="120" height="90" as="geometry" />
        </mxCell>
        <mxCell id="mi7ohrlbgTPJLSs5IZqN-46" value="return integer" style="rounded=1;whiteSpace=wrap;html=1;" parent="0-PH-o09ThRLQz_w7qao-19" vertex="1">
          <mxGeometry x="30" y="920" width="120" height="60" as="geometry" />
        </mxCell>
        <mxCell id="mi7ohrlbgTPJLSs5IZqN-52" value="check minute input is from 0 to 60" style="shape=process;whiteSpace=wrap;html=1;backgroundOutline=1;" parent="0-PH-o09ThRLQz_w7qao-19" vertex="1">
          <mxGeometry x="30" y="710" width="120" height="60" as="geometry" />
        </mxCell>
        <mxCell id="mi7ohrlbgTPJLSs5IZqN-56" value="end" style="html=1;dashed=0;whiteSpace=wrap;shape=mxgraph.dfd.start" parent="0-PH-o09ThRLQz_w7qao-19" vertex="1">
          <mxGeometry x="50" y="1010" width="80" height="30" as="geometry" />
        </mxCell>
        <mxCell id="mi7ohrlbgTPJLSs5IZqN-57" value="" style="edgeStyle=orthogonalEdgeStyle;rounded=0;orthogonalLoop=1;jettySize=auto;html=1;" parent="0-PH-o09ThRLQz_w7qao-19" source="mi7ohrlbgTPJLSs5IZqN-46" target="mi7ohrlbgTPJLSs5IZqN-56" edge="1">
          <mxGeometry relative="1" as="geometry" />
        </mxCell>
        <mxCell id="mi7ohrlbgTPJLSs5IZqN-63" value="check hour input is from 0 to 24" style="shape=process;whiteSpace=wrap;html=1;backgroundOutline=1;" parent="0-PH-o09ThRLQz_w7qao-19" vertex="1">
          <mxGeometry x="30" y="390" width="120" height="60" as="geometry" />
        </mxCell>
        <mxCell id="mi7ohrlbgTPJLSs5IZqN-86" value="accept input&lt;br&gt;&amp;nbsp;for hour" style="shape=parallelogram;perimeter=parallelogramPerimeter;whiteSpace=wrap;html=1;fixedSize=1;" parent="0-PH-o09ThRLQz_w7qao-19" vertex="1">
          <mxGeometry x="30" y="280" width="120" height="60" as="geometry" />
        </mxCell>
        <mxCell id="mi7ohrlbgTPJLSs5IZqN-43" style="edgeStyle=orthogonalEdgeStyle;rounded=0;orthogonalLoop=1;jettySize=auto;html=1;" parent="0-PH-o09ThRLQz_w7qao-19" source="mi7ohrlbgTPJLSs5IZqN-42" target="mi7ohrlbgTPJLSs5IZqN-86" edge="1">
          <mxGeometry relative="1" as="geometry">
            <mxPoint x="30" y="310" as="targetPoint" />
            <Array as="points">
              <mxPoint y="525" />
              <mxPoint y="310" />
            </Array>
          </mxGeometry>
        </mxCell>
        <mxCell id="mi7ohrlbgTPJLSs5IZqN-49" value="False" style="edgeLabel;html=1;align=center;verticalAlign=middle;resizable=0;points=[];" parent="mi7ohrlbgTPJLSs5IZqN-43" vertex="1" connectable="0">
          <mxGeometry x="0.0407" y="-1" relative="1" as="geometry">
            <mxPoint as="offset" />
          </mxGeometry>
        </mxCell>
        <mxCell id="mi7ohrlbgTPJLSs5IZqN-89" value="accept input for minute" style="shape=parallelogram;perimeter=parallelogramPerimeter;whiteSpace=wrap;html=1;fixedSize=1;" parent="0-PH-o09ThRLQz_w7qao-19" vertex="1">
          <mxGeometry x="30" y="610" width="120" height="60" as="geometry" />
        </mxCell>
        <mxCell id="mi7ohrlbgTPJLSs5IZqN-90" value="" style="edgeStyle=orthogonalEdgeStyle;rounded=0;orthogonalLoop=1;jettySize=auto;html=1;" parent="0-PH-o09ThRLQz_w7qao-19" target="mi7ohrlbgTPJLSs5IZqN-45" edge="1">
          <mxGeometry relative="1" as="geometry">
            <mxPoint x="90" y="770" as="sourcePoint" />
            <mxPoint x="90" y="810" as="targetPoint" />
          </mxGeometry>
        </mxCell>
        <mxCell id="mi7ohrlbgTPJLSs5IZqN-45" value="if checked minute input is true" style="rhombus;whiteSpace=wrap;html=1;" parent="0-PH-o09ThRLQz_w7qao-19" vertex="1">
          <mxGeometry x="30" y="800" width="120" height="80" as="geometry" />
        </mxCell>
        <mxCell id="mi7ohrlbgTPJLSs5IZqN-47" value="" style="edgeStyle=orthogonalEdgeStyle;rounded=0;orthogonalLoop=1;jettySize=auto;html=1;" parent="0-PH-o09ThRLQz_w7qao-19" source="mi7ohrlbgTPJLSs5IZqN-45" target="mi7ohrlbgTPJLSs5IZqN-46" edge="1">
          <mxGeometry relative="1" as="geometry" />
        </mxCell>
        <mxCell id="mi7ohrlbgTPJLSs5IZqN-48" value="True" style="edgeLabel;html=1;align=center;verticalAlign=middle;resizable=0;points=[];" parent="mi7ohrlbgTPJLSs5IZqN-47" vertex="1" connectable="0">
          <mxGeometry x="0.2222" y="-1" relative="1" as="geometry">
            <mxPoint as="offset" />
          </mxGeometry>
        </mxCell>
        <mxCell id="mi7ohrlbgTPJLSs5IZqN-50" style="edgeStyle=orthogonalEdgeStyle;rounded=0;orthogonalLoop=1;jettySize=auto;html=1;entryX=0;entryY=0.5;entryDx=0;entryDy=0;" parent="0-PH-o09ThRLQz_w7qao-19" source="mi7ohrlbgTPJLSs5IZqN-45" target="mi7ohrlbgTPJLSs5IZqN-89" edge="1">
          <mxGeometry relative="1" as="geometry">
            <mxPoint x="30" y="640" as="targetPoint" />
            <Array as="points">
              <mxPoint y="840" />
              <mxPoint y="640" />
            </Array>
          </mxGeometry>
        </mxCell>
        <mxCell id="mi7ohrlbgTPJLSs5IZqN-51" value="False" style="edgeLabel;html=1;align=center;verticalAlign=middle;resizable=0;points=[];" parent="mi7ohrlbgTPJLSs5IZqN-50" vertex="1" connectable="0">
          <mxGeometry x="-0.0263" y="1" relative="1" as="geometry">
            <mxPoint as="offset" />
          </mxGeometry>
        </mxCell>
        <mxCell id="0-PH-o09ThRLQz_w7qao-7" value="" style="edgeStyle=orthogonalEdgeStyle;rounded=0;orthogonalLoop=1;jettySize=auto;html=1;" edge="1" parent="0-PH-o09ThRLQz_w7qao-19" source="mi7ohrlbgTPJLSs5IZqN-25" target="0-PH-o09ThRLQz_w7qao-5">
          <mxGeometry relative="1" as="geometry">
            <mxPoint x="90" y="60" as="sourcePoint" />
            <mxPoint x="90.00000000000023" y="170" as="targetPoint" />
          </mxGeometry>
        </mxCell>
        <mxCell id="0-PH-o09ThRLQz_w7qao-8" value="" style="edgeStyle=orthogonalEdgeStyle;rounded=0;orthogonalLoop=1;jettySize=auto;html=1;" edge="1" parent="0-PH-o09ThRLQz_w7qao-19" source="0-PH-o09ThRLQz_w7qao-5" target="mi7ohrlbgTPJLSs5IZqN-86">
          <mxGeometry relative="1" as="geometry" />
        </mxCell>
        <mxCell id="0-PH-o09ThRLQz_w7qao-9" value="True" style="edgeLabel;html=1;align=center;verticalAlign=middle;resizable=0;points=[];" vertex="1" connectable="0" parent="0-PH-o09ThRLQz_w7qao-8">
          <mxGeometry x="-0.055" y="2" relative="1" as="geometry">
            <mxPoint as="offset" />
          </mxGeometry>
        </mxCell>
        <mxCell id="0-PH-o09ThRLQz_w7qao-10" style="edgeStyle=orthogonalEdgeStyle;rounded=0;orthogonalLoop=1;jettySize=auto;html=1;" edge="1" parent="0-PH-o09ThRLQz_w7qao-19" source="0-PH-o09ThRLQz_w7qao-5" target="mi7ohrlbgTPJLSs5IZqN-89">
          <mxGeometry relative="1" as="geometry">
            <mxPoint x="180" y="650" as="targetPoint" />
            <Array as="points">
              <mxPoint x="200" y="170" />
              <mxPoint x="200" y="640" />
            </Array>
          </mxGeometry>
        </mxCell>
        <mxCell id="0-PH-o09ThRLQz_w7qao-11" value="True" style="edgeLabel;html=1;align=center;verticalAlign=middle;resizable=0;points=[];" vertex="1" connectable="0" parent="0-PH-o09ThRLQz_w7qao-10">
          <mxGeometry x="-0.0868" y="-2" relative="1" as="geometry">
            <mxPoint as="offset" />
          </mxGeometry>
        </mxCell>
        <mxCell id="0-PH-o09ThRLQz_w7qao-5" value="If hour flag" style="rhombus;whiteSpace=wrap;html=1;" vertex="1" parent="0-PH-o09ThRLQz_w7qao-19">
          <mxGeometry x="20" y="130" width="140" height="80" as="geometry" />
        </mxCell>
        <mxCell id="0-PH-o09ThRLQz_w7qao-20" value="" style="group" vertex="1" connectable="0" parent="1">
          <mxGeometry x="-210" y="20" width="160" height="660" as="geometry" />
        </mxCell>
        <mxCell id="mi7ohrlbgTPJLSs5IZqN-5" value="" style="edgeStyle=orthogonalEdgeStyle;rounded=0;orthogonalLoop=1;jettySize=auto;html=1;" parent="0-PH-o09ThRLQz_w7qao-20" source="mi7ohrlbgTPJLSs5IZqN-3" edge="1">
          <mxGeometry relative="1" as="geometry">
            <mxPoint x="100" y="100" as="targetPoint" />
          </mxGeometry>
        </mxCell>
        <mxCell id="mi7ohrlbgTPJLSs5IZqN-3" value="acceptinput()" style="shape=process;whiteSpace=wrap;html=1;backgroundOutline=1;" parent="0-PH-o09ThRLQz_w7qao-20" vertex="1">
          <mxGeometry x="40" width="120" height="60" as="geometry" />
        </mxCell>
        <mxCell id="mi7ohrlbgTPJLSs5IZqN-9" value="" style="edgeStyle=orthogonalEdgeStyle;rounded=0;orthogonalLoop=1;jettySize=auto;html=1;" parent="0-PH-o09ThRLQz_w7qao-20" source="mi7ohrlbgTPJLSs5IZqN-6" edge="1">
          <mxGeometry relative="1" as="geometry">
            <mxPoint x="100" y="220" as="targetPoint" />
          </mxGeometry>
        </mxCell>
        <mxCell id="mi7ohrlbgTPJLSs5IZqN-6" value="loop" style="shape=hexagon;perimeter=hexagonPerimeter2;whiteSpace=wrap;html=1;fixedSize=1;" parent="0-PH-o09ThRLQz_w7qao-20" vertex="1">
          <mxGeometry x="40" y="100" width="120" height="80" as="geometry" />
        </mxCell>
        <mxCell id="mi7ohrlbgTPJLSs5IZqN-19" style="edgeStyle=orthogonalEdgeStyle;rounded=0;orthogonalLoop=1;jettySize=auto;html=1;entryX=0;entryY=0.5;entryDx=0;entryDy=0;" parent="0-PH-o09ThRLQz_w7qao-20" source="mi7ohrlbgTPJLSs5IZqN-14" target="mi7ohrlbgTPJLSs5IZqN-6" edge="1">
          <mxGeometry relative="1" as="geometry">
            <mxPoint y="135.5555623372396" as="targetPoint" />
            <Array as="points">
              <mxPoint y="460" />
              <mxPoint y="140" />
            </Array>
          </mxGeometry>
        </mxCell>
        <mxCell id="mi7ohrlbgTPJLSs5IZqN-20" value="False" style="edgeLabel;html=1;align=center;verticalAlign=middle;resizable=0;points=[];" parent="mi7ohrlbgTPJLSs5IZqN-19" vertex="1" connectable="0">
          <mxGeometry x="-0.0267" y="-1" relative="1" as="geometry">
            <mxPoint as="offset" />
          </mxGeometry>
        </mxCell>
        <mxCell id="mi7ohrlbgTPJLSs5IZqN-14" value="if input is valid" style="rhombus;whiteSpace=wrap;html=1;" parent="0-PH-o09ThRLQz_w7qao-20" vertex="1">
          <mxGeometry x="50" y="420" width="100" height="80" as="geometry" />
        </mxCell>
        <mxCell id="mi7ohrlbgTPJLSs5IZqN-16" value="return true" style="rounded=1;whiteSpace=wrap;html=1;" parent="0-PH-o09ThRLQz_w7qao-20" vertex="1">
          <mxGeometry x="40" y="540" width="120" height="60" as="geometry" />
        </mxCell>
        <mxCell id="mi7ohrlbgTPJLSs5IZqN-17" value="" style="edgeStyle=orthogonalEdgeStyle;rounded=0;orthogonalLoop=1;jettySize=auto;html=1;" parent="0-PH-o09ThRLQz_w7qao-20" source="mi7ohrlbgTPJLSs5IZqN-14" target="mi7ohrlbgTPJLSs5IZqN-16" edge="1">
          <mxGeometry relative="1" as="geometry" />
        </mxCell>
        <mxCell id="mi7ohrlbgTPJLSs5IZqN-23" value="True" style="edgeLabel;html=1;align=center;verticalAlign=middle;resizable=0;points=[];" parent="mi7ohrlbgTPJLSs5IZqN-17" vertex="1" connectable="0">
          <mxGeometry x="-0.1833" relative="1" as="geometry">
            <mxPoint as="offset" />
          </mxGeometry>
        </mxCell>
        <mxCell id="mi7ohrlbgTPJLSs5IZqN-21" value="" style="edgeStyle=orthogonalEdgeStyle;rounded=0;orthogonalLoop=1;jettySize=auto;html=1;" parent="0-PH-o09ThRLQz_w7qao-20" target="mi7ohrlbgTPJLSs5IZqN-18" edge="1">
          <mxGeometry relative="1" as="geometry">
            <mxPoint x="100" y="280" as="sourcePoint" />
            <mxPoint x="100" y="370" as="targetPoint" />
          </mxGeometry>
        </mxCell>
        <mxCell id="mi7ohrlbgTPJLSs5IZqN-22" value="" style="edgeStyle=orthogonalEdgeStyle;rounded=0;orthogonalLoop=1;jettySize=auto;html=1;" parent="0-PH-o09ThRLQz_w7qao-20" source="mi7ohrlbgTPJLSs5IZqN-18" target="mi7ohrlbgTPJLSs5IZqN-14" edge="1">
          <mxGeometry relative="1" as="geometry" />
        </mxCell>
        <mxCell id="mi7ohrlbgTPJLSs5IZqN-18" value="check input" style="shape=process;whiteSpace=wrap;html=1;backgroundOutline=1;" parent="0-PH-o09ThRLQz_w7qao-20" vertex="1">
          <mxGeometry x="40" y="320" width="120" height="60" as="geometry" />
        </mxCell>
        <mxCell id="mi7ohrlbgTPJLSs5IZqN-54" value="end" style="html=1;dashed=0;whiteSpace=wrap;shape=mxgraph.dfd.start" parent="0-PH-o09ThRLQz_w7qao-20" vertex="1">
          <mxGeometry x="60" y="630" width="80" height="30" as="geometry" />
        </mxCell>
        <mxCell id="mi7ohrlbgTPJLSs5IZqN-55" value="" style="edgeStyle=orthogonalEdgeStyle;rounded=0;orthogonalLoop=1;jettySize=auto;html=1;" parent="0-PH-o09ThRLQz_w7qao-20" source="mi7ohrlbgTPJLSs5IZqN-16" target="mi7ohrlbgTPJLSs5IZqN-54" edge="1">
          <mxGeometry relative="1" as="geometry" />
        </mxCell>
        <mxCell id="mi7ohrlbgTPJLSs5IZqN-85" value="accept input" style="shape=parallelogram;perimeter=parallelogramPerimeter;whiteSpace=wrap;html=1;fixedSize=1;" parent="0-PH-o09ThRLQz_w7qao-20" vertex="1">
          <mxGeometry x="40" y="220" width="120" height="60" as="geometry" />
        </mxCell>
        <mxCell id="0-PH-o09ThRLQz_w7qao-25" value="" style="edgeStyle=orthogonalEdgeStyle;rounded=0;orthogonalLoop=1;jettySize=auto;html=1;" edge="1" parent="1" source="0-PH-o09ThRLQz_w7qao-22" target="0-PH-o09ThRLQz_w7qao-24">
          <mxGeometry relative="1" as="geometry" />
        </mxCell>
        <mxCell id="0-PH-o09ThRLQz_w7qao-22" value="createNode&lt;br&gt;(time, charges)" style="shape=process;whiteSpace=wrap;html=1;backgroundOutline=1;" vertex="1" parent="1">
          <mxGeometry x="2210" y="20" width="120" height="60" as="geometry" />
        </mxCell>
        <mxCell id="0-PH-o09ThRLQz_w7qao-34" value="" style="edgeStyle=orthogonalEdgeStyle;rounded=0;orthogonalLoop=1;jettySize=auto;html=1;" edge="1" parent="1" source="0-PH-o09ThRLQz_w7qao-23" target="0-PH-o09ThRLQz_w7qao-33">
          <mxGeometry relative="1" as="geometry" />
        </mxCell>
        <mxCell id="0-PH-o09ThRLQz_w7qao-23" value="&lt;div&gt;&lt;br&gt;&lt;/div&gt;&lt;div&gt;insertNode&lt;/div&gt;&lt;div&gt;(current, time, charges):&lt;/div&gt;&lt;div&gt;&lt;br&gt;&lt;/div&gt;" style="shape=process;whiteSpace=wrap;html=1;backgroundOutline=1;" vertex="1" parent="1">
          <mxGeometry x="2500" y="20" width="120" height="60" as="geometry" />
        </mxCell>
        <mxCell id="0-PH-o09ThRLQz_w7qao-27" value="" style="edgeStyle=orthogonalEdgeStyle;rounded=0;orthogonalLoop=1;jettySize=auto;html=1;" edge="1" parent="1" source="0-PH-o09ThRLQz_w7qao-24" target="0-PH-o09ThRLQz_w7qao-26">
          <mxGeometry relative="1" as="geometry" />
        </mxCell>
        <mxCell id="0-PH-o09ThRLQz_w7qao-24" value="create a new node" style="rounded=1;whiteSpace=wrap;html=1;" vertex="1" parent="1">
          <mxGeometry x="2210" y="140" width="120" height="60" as="geometry" />
        </mxCell>
        <mxCell id="0-PH-o09ThRLQz_w7qao-29" value="" style="edgeStyle=orthogonalEdgeStyle;rounded=0;orthogonalLoop=1;jettySize=auto;html=1;" edge="1" parent="1" source="0-PH-o09ThRLQz_w7qao-26" target="0-PH-o09ThRLQz_w7qao-28">
          <mxGeometry relative="1" as="geometry" />
        </mxCell>
        <mxCell id="0-PH-o09ThRLQz_w7qao-26" value="new node&#39;s time = time&lt;br&gt;new node&#39;s charge = charge&lt;br&gt;new node&#39;s pointer = null" style="whiteSpace=wrap;html=1;rounded=1;" vertex="1" parent="1">
          <mxGeometry x="2190" y="280" width="160" height="60" as="geometry" />
        </mxCell>
        <mxCell id="0-PH-o09ThRLQz_w7qao-31" value="" style="edgeStyle=orthogonalEdgeStyle;rounded=0;orthogonalLoop=1;jettySize=auto;html=1;" edge="1" parent="1" source="0-PH-o09ThRLQz_w7qao-28" target="0-PH-o09ThRLQz_w7qao-30">
          <mxGeometry relative="1" as="geometry" />
        </mxCell>
        <mxCell id="0-PH-o09ThRLQz_w7qao-28" value="return node" style="rounded=1;whiteSpace=wrap;html=1;" vertex="1" parent="1">
          <mxGeometry x="2210" y="390" width="120" height="60" as="geometry" />
        </mxCell>
        <mxCell id="0-PH-o09ThRLQz_w7qao-30" value="end" style="html=1;dashed=0;whiteSpace=wrap;shape=mxgraph.dfd.start" vertex="1" parent="1">
          <mxGeometry x="2230" y="500" width="80" height="30" as="geometry" />
        </mxCell>
        <mxCell id="0-PH-o09ThRLQz_w7qao-36" value="" style="edgeStyle=orthogonalEdgeStyle;rounded=0;orthogonalLoop=1;jettySize=auto;html=1;" edge="1" parent="1" source="0-PH-o09ThRLQz_w7qao-33" target="0-PH-o09ThRLQz_w7qao-35">
          <mxGeometry relative="1" as="geometry" />
        </mxCell>
        <mxCell id="0-PH-o09ThRLQz_w7qao-33" value="createNode&lt;br style=&quot;border-color: var(--border-color);&quot;&gt;(time, charges)" style="shape=process;whiteSpace=wrap;html=1;backgroundOutline=1;" vertex="1" parent="1">
          <mxGeometry x="2500" y="140" width="120" height="60" as="geometry" />
        </mxCell>
        <mxCell id="0-PH-o09ThRLQz_w7qao-38" value="" style="edgeStyle=orthogonalEdgeStyle;rounded=0;orthogonalLoop=1;jettySize=auto;html=1;" edge="1" parent="1" source="0-PH-o09ThRLQz_w7qao-35" target="0-PH-o09ThRLQz_w7qao-37">
          <mxGeometry relative="1" as="geometry" />
        </mxCell>
        <mxCell id="0-PH-o09ThRLQz_w7qao-35" value="temp node = return value" style="rounded=1;whiteSpace=wrap;html=1;" vertex="1" parent="1">
          <mxGeometry x="2500" y="270" width="120" height="60" as="geometry" />
        </mxCell>
        <mxCell id="0-PH-o09ThRLQz_w7qao-40" value="" style="edgeStyle=orthogonalEdgeStyle;rounded=0;orthogonalLoop=1;jettySize=auto;html=1;" edge="1" parent="1" source="0-PH-o09ThRLQz_w7qao-37" target="0-PH-o09ThRLQz_w7qao-39">
          <mxGeometry relative="1" as="geometry" />
        </mxCell>
        <mxCell id="0-PH-o09ThRLQz_w7qao-37" value="current pointer node = temp node" style="rounded=1;whiteSpace=wrap;html=1;" vertex="1" parent="1">
          <mxGeometry x="2500" y="390" width="120" height="60" as="geometry" />
        </mxCell>
        <mxCell id="0-PH-o09ThRLQz_w7qao-42" value="" style="edgeStyle=orthogonalEdgeStyle;rounded=0;orthogonalLoop=1;jettySize=auto;html=1;" edge="1" parent="1" source="0-PH-o09ThRLQz_w7qao-39" target="0-PH-o09ThRLQz_w7qao-41">
          <mxGeometry relative="1" as="geometry" />
        </mxCell>
        <mxCell id="0-PH-o09ThRLQz_w7qao-39" value="return temp node" style="whiteSpace=wrap;html=1;rounded=1;" vertex="1" parent="1">
          <mxGeometry x="2500" y="520" width="120" height="60" as="geometry" />
        </mxCell>
        <mxCell id="0-PH-o09ThRLQz_w7qao-41" value="end" style="html=1;dashed=0;whiteSpace=wrap;shape=mxgraph.dfd.start" vertex="1" parent="1">
          <mxGeometry x="2520" y="630" width="80" height="30" as="geometry" />
        </mxCell>
      </root>
    </mxGraphModel>
  </diagram>
</mxfile>
